<svg xmlns="http://www.w3.org/2000/svg" version="1.0" viewBox="0 0 600 200"><path d="M261.5 23.9c-1.7.3-3 1.3-3 2.1s-2.2 4.8-5 8.9c-2.7 4-5.8 8.5-6.7 10-1.5 2.1-1.8 5.2-2 16.1-.2 12.1-.3 12.5-.5 3.7-.2-5.3-.8-9.7-1.3-9.7-.8 0-1.7 108.2-1 125.5.2 6.3 5 8.9 12.8 6.9l2.2-.6v-34.3c0-41.8-1.3-51.3-2-15l-.6 26-.2-28.3-.2-28.2h31.4c17.2 0 32.8-.3 34.5-.6 3.1-.6 3.2-.8 2.9-5.3-.5-7.4-.3-7.3-37-6.6l-31.8.7.2-8.9.2-8.8.5 8c.5 7.2.7 7.6 1.3 4 .4-2.2.8-10.2.8-17.7 0-15.7-1.7-20-2.3-5.6l-.3 9.3-.2-11c-.2-10.4.4-13.9 2.4-13.5.5.1 1-.4 1.3-1.1.2-.7-.1-.9-.9-.4-1.6 1-1.4.6 5.2-9.1 4-5.9 5.3-7.1 7.1-6.8 1.2.2 1.6.2.9-.2-2.2-1.1-.1-2.4 3.9-2.4 4.1 0 5.6 1.9 1.7 2.1-2.2.1-2.2.1.2.9 3.2 1 41.1 1.2 42.6.2 1.7-1.1 3.4-4.8 3.4-7.5 0-1.7-.7-2.7-2.2-3.1-3-.8-54.4-.5-58.3.3m-16.8 143.3c-.1 7.9-.3 1.7-.3-13.7s.2-21.8.3-14.3c.2 7.5.2 20.1 0 28m90.1-143.5c-2.2.6-2.3 4.2-.3 8.6 3.2 6.6 24.4 46.8 25.5 48.2.4.5 3.3 5.8 6.3 11.7 5.4 10.4 6 13.2 3.7 16.3-.4.5-2.6 4.4-4.8 8.5-36.9 69.7-33.2 61.7-30.6 66.8 2 4.1 3.2 4 7.4-.3 1.9-1.9 3-3.5 2.6-3.5s1.8-4.9 5-10.9c3.2-6.1 6.2-10.7 6.7-10.4.6.3.7.1.3-.5-.9-1.4 3.5-10.3 4.7-9.5q.9.45.3-.6c-.4-.6.2-2.4 1.3-4s3.6-6 5.4-9.8 3.8-6.8 4.4-6.6c.7.3.9-.4.6-1.8-.5-1.7-.3-2 .7-1.4.8.5 1.1.4.7-.3-.9-1.4.3-4.3 1.4-3.6.5.3.6-.2.3-1-.6-1.7 1.2-2.1 3.2-.8 1 .6 6.3 10.4 23.9 43.7 2.9 5.5 6.1 11.5 7.3 13.4 1.1 1.8 1.8 3.9 1.6 4.5-.6 1.7 5.1 6.9 7.1 6.4.9-.1 1.6-.7 1.5-1.1 0-.4.6-1.5 1.5-2.3.8-.9 1.5-2.4 1.5-3.5 0-1.6-6.7-15.4-9-18.4-.4-.6-4-7.3-8.1-15-4-7.7-9-17.2-11-21-2.1-3.9-4.5-8.5-5.3-10.3-.9-1.8-2.5-4.5-3.6-5.9-2.8-3.5-2.5-7 .9-12.2 1.6-2.4 3.7-6.1 4.7-8.3 1.2-2.8 2-3.5 2.6-2.6s.8.7.4-.7c-.6-2.1 9.8-22.5 10.6-20.9.3.5.3.3.1-.4-.5-2.1 3.6-9.4 4.9-8.6.6.4.8.3.4-.4-.7-1.1 9.5-21.3 10.4-20.7.3.2.6-.4.7-1.3s.4-3.3.8-5.3c.6-3.2.4-3.8-1.4-4.4-1.1-.3-3.1-.3-4.3.1-1.3.4-3 .8-3.8.8-.8.1-1.5 1-1.6 2.1-.1 1.7-9.3 19.7-24.2 47.5-2 3.6-4.4 8.2-5.5 10.3-3.1 6-7.7 8.3-7.7 3.8 0-1.7-2.4-6.5-11.2-22.6-2.1-3.9-4.5-8.5-5.4-10.3-.8-1.8-3.9-7.7-6.9-13.1s-5.7-11.2-5.9-13-.9-3.8-1.6-4.4c-1-1-1.1-.8-.6.8.7 1.8.5 1.8-1.7-.3-2.3-2.2-3.5-2.4-6.9-1.5m97.5.9c-.3.8 0 3.3.7 5.5 1.2 3.6 1.6 3.9 4.9 3.9 2 0 4.2.4 4.9.9 1.1.7 1.4 13 1.5 67.2.1 42.3.6 66.9 1.2 67.9.7 1 1.2-20.5 1.5-66l.5-67.5.3 68 .2 68h-7.2c-8.1 0-8-.1-8.2 9.5l-.1 5.5 19.6.3 19.6.2.6-3.7c.4-2.1.4-5.5 0-7.6-.6-3.7-.6-3.7-5.2-3.7-2.6 0-5.2-.5-5.9-1.2-.9-.9-1.2-17.7-1.2-69.5V34h5.4c5.9 0 6.6-.8 6.6-7.8V23h-19.5c-16.9 0-19.6.2-20.2 1.6m15.4 9.6c-.3.7-.5.2-.5-1.2s.2-1.9.5-1.3c.2.7.2 1.9 0 2.5m10 13c-.2 2.4-.4.7-.4-3.7s.2-6.3.4-4.3c.2 2.1.2 5.7 0 8m-14 127.4c-.3.3-1.2.4-1.9.1-.8-.3-.5-.6.6-.6 1.1-.1 1.7.2 1.3.5M477 28.8v5.9l6.8.6c3.7.4 13.1.7 21 .7H519l-.2 72.7-.3 72.8-.2-70.5c-.2-44.9-.7-70.8-1.3-71.4-1.3-1.3-1.2-7.7-1.1 73.7.1 44.4.5 70.6 1.1 71.7 1.2 2.2 6.8 3.5 10.4 2.6 1.9-.5 2.7-1.5 3.1-3.9.4-1.8.5-36 .3-75.8l-.3-72.5 19.3-.1c21.8 0 21.4.2 21-7.3l-.3-4.5-46.7-.3L477 23zm51.7 117.4c-.1 20.5-.2 3.8-.2-37.2s.1-57.7.2-37.3c.2 20.5.2 54.1 0 74.5M97.9 29.3c-5.8 2.9-16.1 7.9-23 11.1-6.8 3.3-15.5 7.5-19.3 9.3S48.3 53 47.8 53s-1.6.7-2.4 1.5c-1.7 1.6-1.1 3.5 1.1 3.5.8 0 9 3.6 18.1 8 9.2 4.4 16.8 8 17 8 .1 0 6.5 3 14.1 6.7 7.6 3.6 14.5 6.6 15.3 6.5.8 0 8.3-3.3 16.5-7.2 8.3-4 21.9-10.6 30.4-14.6 8.5-4.1 16.3-7.4 17.3-7.4 2.3 0 2.1-2.9-.2-4-.8-.4-4.9-2.4-9-4.3-4.1-2-12.9-6.1-19.5-9.3-6.6-3.1-17.1-8.1-23.4-11-6.2-3-12-5.4-13-5.3-.9 0-6.4 2.4-12.2 5.2m-63.9 78v39.3l7.3 3.4c3.9 1.8 13.7 6.5 21.7 10.3C92.2 174.2 98.1 177 99.1 177c.5 0 .9.4.9 1 0 .5.9 1 2 1 2 0 2-.7 2-37.8 0-20.7-.3-38.7-.6-40-.4-1.2-1.2-2.2-1.9-2.2-.6 0-4.5-1.6-8.6-3.6s-10.5-5.1-14.4-6.9c-7.6-3.6-26.3-12.4-36.4-17.4-3.6-1.7-6.8-3.1-7.3-3.1-.4 0-.8 17.7-.8 39.3m143.5-35.4c-6.8 3.4-18.9 9.3-44.8 21.5-6.5 3.1-12.4 5.6-13.2 5.6-1.3 0-1.5 5.5-1.5 40 0 22 .3 40 .7 40s4.3-1.8 8.8-3.9c4.4-2.2 12.7-6.2 18.5-8.9s16.4-7.8 23.5-11.2c7.2-3.4 14-6.6 15.3-7.1l2.2-.9v-39.5c0-31-.3-39.5-1.2-39.4-.7.1-4.5 1.8-8.3 3.8"/><path d="M388 98.5c-.7.9-1.1 1.8-.8 2 .3.3 1.1-.1 1.8-1s1.1-1.8.8-2c-.3-.3-1.1.1-1.8 1"/></svg>